<svg xmlns="http://www.w3.org/2000/svg" xmlns:xlink="http://www.w3.org/1999/xlink" width="85.837" height="92.326" viewBox="0 0 85.837 92.326"><defs><style>.a{fill:#f0ece8;}.b{fill:#002d6a;}.c{fill:#0064a3;}.d{filter:url(#a);}</style><filter id="a" x="0" y="0" width="85.837" height="92.326" filterUnits="userSpaceOnUse"><feOffset dy="3" input="SourceAlpha"/><feGaussianBlur stdDeviation="5" result="b"/><feFlood flood-color="#0064a3" flood-opacity="0.439"/><feComposite operator="in" in2="b"/><feComposite in="SourceGraphic"/></filter></defs><g transform="matrix(0.985, -0.174, 0.174, 0.985, 15.001, 20.166)"><g class="d" transform="matrix(0.98, 0.17, -0.17, 0.98, -11.27, -22.46)"><rect class="a" width="47" height="55" transform="matrix(0.98, -0.17, 0.17, 0.98, 15, 20.16)"/></g><circle class="b" cx="1.647" cy="1.647" r="1.647" transform="translate(16.387 4.389)"/><circle class="b" cx="1.647" cy="1.647" r="1.647" transform="translate(3.544 12.907)"/><circle class="b" cx="1.647" cy="1.647" r="1.647" transform="translate(31.445 5.283)"/><circle class="b" cx="1.647" cy="1.647" r="1.647" transform="translate(3.544 30.038)"/><circle class="b" cx="1.647" cy="1.647" r="1.647" transform="translate(11.097 37.75)"/><circle class="b" cx="1.647" cy="1.647" r="1.647" transform="translate(18.908 43.164)"/><circle class="b" cx="1.647" cy="1.647" r="1.647" transform="translate(28.856 37.871)"/><circle class="b" cx="1.647" cy="1.647" r="1.647" transform="translate(41.132 20.251)"/><circle class="b" cx="1.647" cy="1.647" r="1.647" transform="translate(36.946 31.147)"/><circle class="b" cx="1.647" cy="1.647" r="1.647" transform="translate(3.544 43.164)"/><circle class="b" cx="1.647" cy="1.647" r="1.647" transform="translate(40.489 38.344)"/><circle class="b" cx="1.647" cy="1.647" r="1.647" transform="translate(40.489 2.76)"/><circle class="b" cx="1.647" cy="1.647" r="1.647" transform="translate(3.544 2.742)"/><ellipse class="b" cx="15.288" cy="12.511" rx="15.288" ry="12.511" transform="translate(8.017 9.788)"/><g transform="translate(10.174 18.749)"><path class="a" d="M283.063,333.811a5.1,5.1,0,0,1-3.137-.832,2.475,2.475,0,0,1-.926-2,2.214,2.214,0,0,1,.868-1.81c1.855-1.443,6.195-.441,7.046-.226a.845.845,0,0,1-.414,1.639c-1.786-.452-4.7-.773-5.593-.079a.535.535,0,0,0-.217.477.79.79,0,0,0,.295.683c.854.686,3.226.451,4.24.229a.845.845,0,0,1,.361,1.65A12.761,12.761,0,0,1,283.063,333.811Z" transform="translate(-279.001 -328.096)"/><path class="a" d="M293.454,333.616a3.055,3.055,0,0,1-.9-.139.845.845,0,1,1,.5-1.614,1.073,1.073,0,0,0,1.141-.251.892.892,0,0,0,.232-.9c-.166-.463-.794-.8-1.725-.908a2.559,2.559,0,0,0-2.118.49,3.456,3.456,0,0,0-.844,2.353.845.845,0,0,1-.813.874.858.858,0,0,1-.875-.807,5.124,5.124,0,0,1,1.381-3.655,4.147,4.147,0,0,1,3.473-.932c2.177.266,2.883,1.379,3.112,2.02a2.558,2.558,0,0,1-.6,2.632A2.686,2.686,0,0,1,293.454,333.616Z" transform="translate(-279.389 -328.082)"/><path class="a" d="M301.536,333.811a17.763,17.763,0,0,1-4-.54.845.845,0,1,1,.414-1.638c1.786.45,4.7.774,5.594.078a.536.536,0,0,0,.216-.476.791.791,0,0,0-.295-.684c-.818-.659-3.036-.489-4.24-.228a.845.845,0,0,1-.36-1.651c.4-.086,3.949-.813,5.658.563a2.475,2.475,0,0,1,.927,2,2.213,2.213,0,0,1-.868,1.81A5.082,5.082,0,0,1,301.536,333.811Z" transform="translate(-279.768 -328.096)"/></g><path class="c" d="M314.416,367.4h-46.61v-5.9a48.373,48.373,0,0,0,12.33,1.226c10.451-.71,16.324-6.161,21.39-6.8a26.935,26.935,0,0,1,12.889,1.774Z" transform="translate(-267.806 -312.403)"/></g></svg>