<svg xmlns="http://www.w3.org/2000/svg" xmlns:xlink="http://www.w3.org/1999/xlink" width="85.56" height="93.231" viewBox="0 0 85.56 93.231"><defs><style>.a{fill:#776036;}.b{fill:#b0342f;}.c{fill:#f0ece8;}.d{fill:#221b16;}.e{fill:#fdf0df;}.f{filter:url(#a);}</style><filter id="a" x="0" y="0" width="85.56" height="93.231" filterUnits="userSpaceOnUse"><feOffset dy="3" input="SourceAlpha"/><feGaussianBlur stdDeviation="5" result="b"/><feFlood flood-color="#d5af46" flood-opacity="0.439"/><feComposite operator="in" in2="b"/><feComposite in="SourceGraphic"/></filter></defs><g transform="matrix(0.985, -0.174, 0.174, 0.985, -1036.843, -555.004)"><g transform="translate(936 749)"><g class="f" transform="matrix(0.98, 0.17, -0.17, 0.98, -11.28, -22.38)"><rect class="a" width="46.542" height="56" transform="matrix(0.98, -0.17, 0.17, 0.98, 15, 20.08)"/></g><path class="b" d="M391.926,139.484H378.356V119.8H358.5v19.68H344.926v16.64H358.5V175.8h19.859v-19.68h13.571Z" transform="translate(-344.926 -119.804)"/><g transform="translate(20.192 8.633)"><path class="c" d="M365.56,135.489a6.025,6.025,0,0,1,.982-3.7A2.921,2.921,0,0,1,368.9,130.7a2.614,2.614,0,0,1,2.136,1.025c1.7,2.189.521,7.309.266,8.314a1,1,0,1,1-1.933-.488c.532-2.107.912-5.549.093-6.6a.633.633,0,0,0-.562-.256.933.933,0,0,0-.806.349c-.809,1.006-.532,3.8-.269,5a1,1,0,1,1-1.948.427A15.073,15.073,0,0,1,365.56,135.489Z" transform="translate(-365.56 -130.696)"/><path class="c" d="M365.774,151.326a3.594,3.594,0,0,1,.164-1.061,1,1,0,1,1,1.9.589,1.266,1.266,0,0,0,.3,1.347,1.051,1.051,0,0,0,1.059.272c.547-.194.938-.936,1.072-2.034a3.022,3.022,0,0,0-.579-2.5,4.076,4.076,0,0,0-2.777-1,1,1,0,0,1-1.031-.959,1.014,1.014,0,0,1,.953-1.034,6.059,6.059,0,0,1,4.313,1.63,4.9,4.9,0,0,1,1.1,4.1c-.314,2.568-1.628,3.4-2.382,3.671a3.017,3.017,0,0,1-3.107-.713A3.171,3.171,0,0,1,365.774,151.326Z" transform="translate(-365.561 -130.743)"/><path class="c" d="M365.561,164.9a21.029,21.029,0,0,1,.636-4.714,1,1,0,0,1,1.934.488c-.531,2.108-.914,5.552-.094,6.6a.632.632,0,0,0,.561.256.932.932,0,0,0,.807-.348c.777-.966.578-3.582.27-5a1,1,0,0,1,1.948-.426c.1.472.959,4.661-.665,6.676a2.92,2.92,0,0,1-2.36,1.093,2.611,2.611,0,0,1-2.135-1.025A5.99,5.99,0,0,1,365.561,164.9Z" transform="translate(-365.56 -130.791)"/></g></g><g transform="translate(969 749)"><rect class="d" width="13" height="1" transform="translate(0.542 20)"/><rect class="e" width="13" height="1" transform="translate(0.542 19)"/><rect class="d" width="21.356" height="1.424" transform="translate(1.424) rotate(90)"/><rect class="e" width="19.932" height="1.424" transform="translate(2.847) rotate(90)"/></g><g transform="translate(950 805) rotate(180)"><rect class="d" width="14" height="1" transform="translate(0 20)"/><rect class="e" width="14" height="1" transform="translate(0 19)"/><rect class="d" width="21.356" height="1.424" transform="translate(1.424) rotate(90)"/><rect class="e" width="19.932" height="1.424" transform="translate(2.847) rotate(90)"/></g><g transform="translate(936 749)"><rect class="d" width="14" height="1" transform="translate(0 20)"/><rect class="e" width="14" height="1" transform="translate(0 19)"/><rect class="d" width="21.356" height="1.424" transform="translate(14) rotate(90)"/><rect class="e" width="19.932" height="1.424" transform="translate(12.576) rotate(90)"/></g><g transform="translate(969 783.644)"><rect class="d" width="13" height="1" transform="translate(0.542 0.356)"/><rect class="e" width="13" height="1" transform="translate(0.542 1.356)"/><rect class="d" width="21.356" height="1.424" transform="translate(0 21.356) rotate(-90)"/><rect class="e" width="19.932" height="1.424" transform="translate(1.424 21.356) rotate(-90)"/></g></g></svg>