<svg xmlns="http://www.w3.org/2000/svg" xmlns:xlink="http://www.w3.org/1999/xlink" width="86.01" height="93.311" viewBox="0 0 86.01 93.311"><defs><style>.a{fill:#acb151;}.b{fill:#3c6230;}.c{fill:#b0342f;}.d{filter:url(#a);}</style><filter id="a" x="0" y="0" width="86.01" height="93.311" filterUnits="userSpaceOnUse"><feOffset dy="3" input="SourceAlpha"/><feGaussianBlur stdDeviation="5" result="b"/><feFlood flood-color="#acb151" flood-opacity="0.439"/><feComposite operator="in" in2="b"/><feComposite in="SourceGraphic"/></filter></defs><g transform="matrix(0.985, -0.174, 0.174, 0.985, -1022.894, -470.058)"><g class="d" transform="matrix(0.98, 0.17, -0.17, 0.98, 925.73, 640.54)"><rect class="a" width="47" height="56" transform="matrix(0.98, -0.17, 0.17, 0.98, 15, 20.16)"/></g><g transform="translate(952.186 668.22)"><rect class="b" width="34.874" height="10.916" transform="translate(13.944 5.32) rotate(90)"/><path class="b" d="M212.268,136.981l-7.967,6.758a.505.505,0,0,0,.327.891h15.933a.505.505,0,0,0,.327-.891l-7.966-6.758A.5.5,0,0,0,212.268,136.981Z" transform="translate(-204.109 -136.861)"/><path class="b" d="M212.917,183.523l7.988-6.775a.5.5,0,0,0-.322-.877H204.607a.5.5,0,0,0-.322.877l7.988,6.775A.5.5,0,0,0,212.917,183.523Z" transform="translate(-204.108 -137.821)"/></g><g transform="translate(945.55 681.983)"><rect class="c" width="2.027" height="2.027" transform="translate(2.027 0) rotate(90)"/><rect class="c" width="2.027" height="2.027" transform="translate(2.027 4.981) rotate(90)"/><rect class="c" width="2.027" height="2.027" transform="translate(2.027 9.962) rotate(90)"/><rect class="c" width="2.027" height="2.027" transform="translate(2.027 14.943) rotate(90)"/></g><g transform="translate(977.339 665.372)"><g transform="translate(0 0)"><rect class="c" width="3.253" height="1.409" rx="0.262" transform="translate(2.031 1.466) rotate(90)"/><path class="c" d="M241.411,130.676l-1.218,1.947a.108.108,0,0,0,.092.166h2.437a.108.108,0,0,0,.092-.166l-1.218-1.947A.109.109,0,0,0,241.411,130.676Z" transform="translate(-240.176 -130.625)"/></g><g transform="translate(0 7.758)"><rect class="c" width="3.253" height="1.409" rx="0.262" transform="translate(2.031 1.466) rotate(90)"/><path class="c" d="M241.411,130.676l-1.218,1.947a.108.108,0,0,0,.092.166h2.437a.108.108,0,0,0,.092-.166l-1.218-1.947A.109.109,0,0,0,241.411,130.676Z" transform="translate(-240.176 -130.625)"/></g><g transform="translate(0 15.516)"><rect class="c" width="3.253" height="1.409" rx="0.262" transform="translate(2.031 1.466) rotate(90)"/><path class="c" d="M241.411,130.676l-1.218,1.947a.108.108,0,0,0,.092.166h2.437a.108.108,0,0,0,.092-.166l-1.218-1.947A.109.109,0,0,0,241.411,130.676Z" transform="translate(-240.176 -130.625)"/></g><g transform="translate(0 23.274)"><rect class="c" width="3.253" height="1.409" rx="0.262" transform="translate(2.031 1.466) rotate(90)"/><path class="c" d="M241.411,130.676l-1.218,1.947a.108.108,0,0,0,.092.166h2.437a.108.108,0,0,0,.092-.166l-1.218-1.947A.109.109,0,0,0,241.411,130.676Z" transform="translate(-240.176 -130.625)"/></g><g transform="translate(0 31.032)"><rect class="c" width="3.253" height="1.409" rx="0.262" transform="translate(2.031 1.466) rotate(90)"/><path class="c" d="M241.411,130.676l-1.218,1.947a.108.108,0,0,0,.092.166h2.437a.108.108,0,0,0,.092-.166l-1.218-1.947A.109.109,0,0,0,241.411,130.676Z" transform="translate(-240.176 -130.625)"/></g><g transform="translate(0 38.79)"><rect class="c" width="3.253" height="1.409" rx="0.262" transform="translate(2.031 1.466) rotate(90)"/><path class="c" d="M241.411,130.676l-1.218,1.947a.108.108,0,0,0,.092.166h2.437a.108.108,0,0,0,.092-.166l-1.218-1.947A.109.109,0,0,0,241.411,130.676Z" transform="translate(-240.176 -130.625)"/></g><g transform="translate(0 46.548)"><rect class="c" width="3.253" height="1.409" rx="0.262" transform="translate(2.031 1.466) rotate(90)"/><path class="c" d="M241.411,130.676l-1.218,1.947a.108.108,0,0,0,.092.166h2.437a.108.108,0,0,0,.092-.166l-1.218-1.947A.109.109,0,0,0,241.411,130.676Z" transform="translate(-240.176 -130.625)"/></g></g></g></svg>