<svg xmlns="http://www.w3.org/2000/svg" xmlns:xlink="http://www.w3.org/1999/xlink" width="85.997" height="93.309" viewBox="0 0 85.997 93.309"><defs><style>.a{fill:#002d6a;}.b{fill:#0064a3;}.c{fill:#f0ece8;}.d{fill:#b0342f;}.e{fill:#d5af46;}.f{fill:#221b16;}.g{filter:url(#a);}</style><filter id="a" x="0" y="0" width="85.997" height="93.309" filterUnits="userSpaceOnUse"><feOffset dy="3" input="SourceAlpha"/><feGaussianBlur stdDeviation="5" result="b"/><feFlood flood-color="#0064a3" flood-opacity="0.439"/><feComposite operator="in" in2="b"/><feComposite in="SourceGraphic"/></filter></defs><g transform="matrix(0.985, -0.174, 0.174, 0.985, -571.278, -176.015)"><g class="g" transform="matrix(0.98, 0.17, -0.17, 0.98, 532.03, 272.54)"><rect class="a" width="46.986" height="56" transform="matrix(0.98, -0.17, 0.17, 0.98, 15, 20.16)"/></g><rect class="b" width="46.986" height="26.916" transform="translate(543.306 295)"/><g transform="translate(543.306 295)"><rect class="c" width="46.986" height="11.278" transform="translate(0 7.819)"/><path class="c" d="M218.122,417.191h15.335l-24.716-26.916H193.407Z" transform="translate(-189.939 -390.274)"/><path class="c" d="M193.407,417.191h15.335l24.716-26.916H218.122Z" transform="translate(-189.939 -390.274)"/><rect class="d" width="46.986" height="2.819" transform="translate(0 12.049)"/><path class="d" d="M227.633,417.191l-24.317-26.916h-3.772l24.317,26.916Z" transform="translate(-190.095 -390.274)"/><path class="d" d="M203.316,417.191l24.317-26.916h-3.772l-24.317,26.916Z" transform="translate(-190.095 -390.274)"/></g><g transform="translate(543.292 316.693)"><g transform="translate(0 0.514)"><path class="e" d="M199.579,425.045a8.509,8.509,0,0,1-5.228-1.387,4.131,4.131,0,0,1-1.543-3.334,3.691,3.691,0,0,1,1.448-3.017c3.091-2.406,10.326-.736,11.745-.375a1.408,1.408,0,0,1-.69,2.731c-2.977-.752-7.84-1.289-9.325-.133a.9.9,0,0,0-.362.794,1.316,1.316,0,0,0,.492,1.139c1.422,1.144,5.376.752,7.067.381a1.409,1.409,0,0,1,.6,2.752A21.338,21.338,0,0,1,199.579,425.045Z" transform="translate(-190.859 -414.084)"/><path class="f" d="M199.292,415.982a29.58,29.58,0,0,1,6.658.9,1.407,1.407,0,0,1-.351,2.772,1.447,1.447,0,0,1-.339-.041,26.97,26.97,0,0,0-6.08-.8,5.761,5.761,0,0,0-3.245.67.9.9,0,0,0-.362.794,1.316,1.316,0,0,0,.492,1.139,5.894,5.894,0,0,0,3.418.759,18.526,18.526,0,0,0,3.65-.378,1.451,1.451,0,0,1,.3-.032,1.409,1.409,0,0,1,.3,2.784,21.334,21.334,0,0,1-4.207.448,8.508,8.508,0,0,1-5.228-1.387,4.13,4.13,0,0,1-1.543-3.334,3.691,3.691,0,0,1,1.448-3.017,8.466,8.466,0,0,1,5.087-1.275m0-1.949a10.113,10.113,0,0,0-6.284,1.686,5.65,5.65,0,0,0-2.2,4.555,6.1,6.1,0,0,0,2.27,4.852,10.116,10.116,0,0,0,6.45,1.818,23.081,23.081,0,0,0,4.621-.493,3.363,3.363,0,0,0,2.564-4,3.3,3.3,0,0,0-.359-.935,3.356,3.356,0,0,0,.073-6.525,31.607,31.607,0,0,0-7.136-.959Z" transform="translate(-190.808 -414.033)"/></g><g transform="translate(14.207)"><path class="e" d="M216.633,424.731a5.053,5.053,0,0,1-1.5-.233,1.408,1.408,0,0,1,.833-2.69,1.788,1.788,0,0,0,1.9-.418,1.482,1.482,0,0,0,.385-1.495c-.275-.773-1.322-1.324-2.874-1.514a4.268,4.268,0,0,0-3.532.818c-1.474,1.35-1.406,3.9-1.406,3.923a1.411,1.411,0,0,1-1.355,1.456,1.431,1.431,0,0,1-1.46-1.345c-.007-.157-.131-3.85,2.3-6.094a6.914,6.914,0,0,1,5.791-1.553c3.627.443,4.806,2.3,5.187,3.366a4.266,4.266,0,0,1-1.007,4.388A4.477,4.477,0,0,1,216.633,424.731Z" transform="translate(-205.675 -413.557)"/><path class="f" d="M214.413,415.455a10.43,10.43,0,0,1,1.257.079c3.627.443,4.806,2.3,5.187,3.366a4.266,4.266,0,0,1-1.007,4.388,4.477,4.477,0,0,1-3.27,1.392,5.055,5.055,0,0,1-1.5-.233,1.408,1.408,0,1,1,.833-2.69,2.211,2.211,0,0,0,.655.1,1.718,1.718,0,0,0,1.247-.522,1.482,1.482,0,0,0,.385-1.495c-.275-.773-1.322-1.324-2.874-1.514a7.332,7.332,0,0,0-.9-.058,3.759,3.759,0,0,0-2.631.877c-1.474,1.349-1.406,3.9-1.406,3.922a1.411,1.411,0,0,1-1.355,1.456h-.049a1.433,1.433,0,0,1-1.411-1.346c-.007-.157-.131-3.85,2.3-6.094a6.435,6.435,0,0,1,4.534-1.632m0-1.949h0a8.335,8.335,0,0,0-5.858,2.15c-3.045,2.81-2.947,7.128-2.927,7.61a3.388,3.388,0,0,0,3.358,3.21l.121,0a3.367,3.367,0,0,0,3.134-2.55,3.369,3.369,0,0,0,2.264,2.386,7,7,0,0,0,2.075.32,6.425,6.425,0,0,0,4.676-1.991,6.2,6.2,0,0,0,1.436-6.392c-.533-1.492-2.123-4.076-6.788-4.647a12.337,12.337,0,0,0-1.492-.094Zm-1.766,7.819a1.977,1.977,0,0,1,.465-.739,1.248,1.248,0,0,1,.5-.263,3.341,3.341,0,0,0-.96,1Z" transform="translate(-205.625 -413.506)"/></g><g transform="translate(28.093 0.514)"><path class="e" d="M229.841,425.046a29.659,29.659,0,0,1-6.66-.9,1.409,1.409,0,1,1,.691-2.732c2.977.751,7.842,1.291,9.324.133a.9.9,0,0,0,.363-.794,1.314,1.314,0,0,0-.493-1.139c-1.363-1.1-5.06-.818-7.066-.381a1.409,1.409,0,0,1-.6-2.752c.667-.143,6.584-1.355,9.433.938a4.126,4.126,0,0,1,1.545,3.334,3.69,3.69,0,0,1-1.448,3.017A8.468,8.468,0,0,1,229.841,425.046Z" transform="translate(-220.169 -414.084)"/><path class="f" d="M229.554,415.982a8.5,8.5,0,0,1,5.225,1.386,4.127,4.127,0,0,1,1.545,3.334,3.69,3.69,0,0,1-1.448,3.017,8.468,8.468,0,0,1-5.086,1.276,29.66,29.66,0,0,1-6.66-.9,1.409,1.409,0,0,1,.343-2.775,1.429,1.429,0,0,1,.348.043,27.068,27.068,0,0,0,6.084.8,5.737,5.737,0,0,0,3.24-.671.9.9,0,0,0,.363-.794,1.314,1.314,0,0,0-.493-1.139,5.883,5.883,0,0,0-3.425-.767,18.17,18.17,0,0,0-3.642.386,1.437,1.437,0,0,1-.3.032,1.409,1.409,0,0,1-.3-2.784,21.468,21.468,0,0,1,4.207-.447m0-1.949h0a23.392,23.392,0,0,0-4.618.491,3.364,3.364,0,0,0-2.568,3.995,3.279,3.279,0,0,0,.359.936,3.358,3.358,0,0,0-.076,6.529,31.8,31.8,0,0,0,7.138.96,10.112,10.112,0,0,0,6.283-1.686,5.654,5.654,0,0,0,2.2-4.556A6.09,6.09,0,0,0,236,415.85a10.094,10.094,0,0,0-6.446-1.817Z" transform="translate(-220.119 -414.033)"/></g></g><g transform="translate(548.808 336.763)"><rect class="c" width="13.968" height="6.875" transform="translate(1.481 7.174)"/><rect class="c" width="4.811" height="3.438" transform="translate(21.136 10.612)"/><rect class="c" width="4.811" height="2.969" transform="translate(29.761 11.08)"/><path class="d" d="M203.633,436.007l-7.959,6.752a.5.5,0,0,0,.326.89H211.92a.5.5,0,0,0,.326-.89l-7.96-6.752A.5.5,0,0,0,203.633,436.007Z" transform="translate(-195.495 -435.887)"/><path class="d" d="M219.5,443.45l-2.768,3.67a.5.5,0,0,0,.4.809h5.536a.5.5,0,0,0,.4-.809l-2.768-3.67A.505.505,0,0,0,219.5,443.45Z" transform="translate(-196.363 -436.075)"/><path class="d" d="M228.5,443.324l-2.768,3.67a.5.5,0,0,0,.4.809h5.536a.5.5,0,0,0,.4-.809l-2.768-3.67A.505.505,0,0,0,228.5,443.324Z" transform="translate(-196.733 -436.071)"/></g><path class="c" d="M232.564,431.881c.812,0,1.351.166,1.473.51.3.848-2.054,2.457-5.26,3.6a15.986,15.986,0,0,1-4.877,1.034c-.812,0-1.351-.166-1.473-.509-.3-.848,2.054-2.458,5.26-3.6a15.965,15.965,0,0,1,4.877-1.035m0-1.949h0a17.848,17.848,0,0,0-5.53,1.147,19.753,19.753,0,0,0-4.392,2.133c-1.845,1.261-2.535,2.59-2.052,3.951.292.823,1.1,1.806,3.31,1.806a17.873,17.873,0,0,0,5.529-1.146,19.8,19.8,0,0,0,4.392-2.134c1.845-1.261,2.535-2.589,2.052-3.95-.292-.824-1.1-1.807-3.309-1.807Z" transform="translate(352.207 -97.231)"/></g></svg>