<svg xmlns="http://www.w3.org/2000/svg" width="14.247" height="14.247" viewBox="0 0 14.247 14.247"><defs><style>.a{fill:#221b16;}</style></defs><g transform="translate(0 0)"><path class="a" d="M33.254.862a2.941,2.941,0,0,0-4.162,0L26.515,3.449a.45.45,0,1,0,.636.638L29.727,1.5a2.047,2.047,0,1,1,2.89,2.9l-3.4,3.415a2.039,2.039,0,0,1-2.89,0,.45.45,0,0,0-.636.638,2.936,2.936,0,0,0,4.162,0l3.4-3.414A2.963,2.963,0,0,0,33.254.862Z" transform="translate(-19.867 0)"/><path class="a" d="M6.9,27.436,4.386,29.962a2.038,2.038,0,0,1-2.889,0,2.057,2.057,0,0,1,0-2.9l3.4-3.414a2.042,2.042,0,0,1,2.89,0,.45.45,0,1,0,.636-.638,2.94,2.94,0,0,0-4.162,0L.86,26.425a2.962,2.962,0,0,0,0,4.175,2.935,2.935,0,0,0,4.161,0l2.518-2.525a.45.45,0,0,0-.636-.638Z" transform="translate(0 -17.217)"/></g></svg>