<svg xmlns="http://www.w3.org/2000/svg" xmlns:xlink="http://www.w3.org/1999/xlink" width="86.01" height="93.311" viewBox="0 0 86.01 93.311"><defs><style>.a{fill:#d5af46;}.b{fill:#f0ece8;}.c{fill:#776036;}.d{fill:#b0342f;}.e{filter:url(#a);}</style><filter id="a" x="0" y="0" width="86.01" height="93.311" filterUnits="userSpaceOnUse"><feOffset dy="3" input="SourceAlpha"/><feGaussianBlur stdDeviation="5" result="b"/><feFlood flood-color="#d5af46" flood-opacity="0.439"/><feComposite operator="in" in2="b"/><feComposite in="SourceGraphic"/></filter></defs><g transform="matrix(0.985, -0.174, 0.174, 0.985, 15, 20.161)"><g class="e" transform="matrix(0.98, 0.17, -0.17, 0.98, -11.27, -22.46)"><rect class="a" width="47" height="56" transform="matrix(0.98, -0.17, 0.17, 0.98, 15, 20.16)"/></g><path class="b" d="M152.668,182.138c-9.334,0-16.929-9.621-16.929-21.449s7.595-21.45,16.929-21.45,16.93,9.622,16.93,21.45S162,182.138,152.668,182.138Zm0-41.024c-8.3,0-15.058,8.782-15.058,19.576s6.756,19.575,15.058,19.575,15.059-8.782,15.059-19.575S160.972,141.114,152.668,141.114Z" transform="translate(-129.267 -130.836)"/><rect class="c" width="14" height="14" transform="translate(16 0.001)"/><path class="b" d="M152.9,156.074a5.836,5.836,0,0,1-3.588-.952,2.831,2.831,0,0,1-1.059-2.288,2.533,2.533,0,0,1,.994-2.071c2.121-1.651,7.087-.5,8.06-.257a.966.966,0,1,1-.474,1.874c-2.043-.516-5.38-.885-6.4-.091a.614.614,0,0,0-.248.545.9.9,0,0,0,.338.782c.976.786,3.689.516,4.849.262a.967.967,0,1,1,.414,1.888A14.643,14.643,0,0,1,152.9,156.074Z" transform="translate(-130.23 -131.681)"/><path class="b" d="M155.357,165.189a3.457,3.457,0,0,1-1.028-.159.966.966,0,1,1,.572-1.846,1.226,1.226,0,0,0,1.3-.287,1.018,1.018,0,0,0,.265-1.025c-.188-.531-.908-.909-1.972-1.04a2.928,2.928,0,0,0-2.424.562,3.952,3.952,0,0,0-.965,2.691.967.967,0,0,1-.93,1,.981.981,0,0,1-1-.923,5.864,5.864,0,0,1,1.58-4.182,4.744,4.744,0,0,1,3.974-1.066c2.49.3,3.3,1.577,3.56,2.31a2.925,2.925,0,0,1-.691,3.011A3.073,3.073,0,0,1,155.357,165.189Z" transform="translate(-130.28 -132.211)"/><path class="b" d="M153.552,176.08a20.318,20.318,0,0,1-4.571-.618.966.966,0,1,1,.474-1.874c2.044.515,5.383.886,6.4.091a.614.614,0,0,0,.248-.545.9.9,0,0,0-.337-.783c-.936-.754-3.473-.561-4.85-.261a.966.966,0,0,1-.413-1.888c.458-.1,4.519-.931,6.474.644a2.835,2.835,0,0,1,1.059,2.288,2.534,2.534,0,0,1-.993,2.071A5.815,5.815,0,0,1,153.552,176.08Z" transform="translate(-130.23 -132.857)"/><rect class="d" width="47" height="2" transform="translate(0 3.001)"/></g></svg>