<svg xmlns="http://www.w3.org/2000/svg" xmlns:xlink="http://www.w3.org/1999/xlink" width="85.837" height="92.326" viewBox="0 0 85.837 92.326"><defs><style>.a{fill:#d5af46;}.b{fill:#b0342f;}.c{fill:#221b16;}.d{filter:url(#a);}</style><filter id="a" x="0" y="0" width="85.837" height="92.326" filterUnits="userSpaceOnUse"><feOffset dy="3" input="SourceAlpha"/><feGaussianBlur stdDeviation="5" result="b"/><feFlood flood-color="#d5af46" flood-opacity="0.439"/><feComposite operator="in" in2="b"/><feComposite in="SourceGraphic"/></filter></defs><g transform="matrix(0.985, -0.174, 0.174, 0.985, 15, 20.162)"><g class="d" transform="matrix(0.98, 0.17, -0.17, 0.98, -11.27, -22.46)"><rect class="a" width="47" height="55" transform="matrix(0.98, -0.17, 0.17, 0.98, 15, 20.16)"/></g><g transform="translate(0 22.617)"><rect class="b" width="47" height="1.843"/><rect class="b" width="47" height="1.843" transform="translate(0 6.915)"/><rect class="b" width="47" height="1.843" transform="translate(0 13.831)"/><rect class="b" width="47" height="1.843" transform="translate(0 20.746)"/></g><g transform="translate(4.824 5.991)"><path class="b" d="M139.06,229.791a6.123,6.123,0,0,1-3.886-1.057,3.3,3.3,0,0,1-1.238-2.661,3,3,0,0,1,1.179-2.449c2.241-1.744,7.046-.7,8.465-.345a1.448,1.448,0,0,1-.707,2.808c-2.22-.561-5.218-.771-5.98-.178-.045.036-.062.048-.062.163,0,.278.092.352.158.405.716.577,3.079.465,4.437.166a1.447,1.447,0,1,1,.62,2.828A15.193,15.193,0,0,1,139.06,229.791Zm-.136-6.177a5.416,5.416,0,0,0-3.216.772,2.038,2.038,0,0,0-.807,1.687,2.362,2.362,0,0,0,.878,1.909,5.3,5.3,0,0,0,3.28.844,14.162,14.162,0,0,0,2.781-.3.482.482,0,1,0-.208-.942c-1.05.23-4.04.615-5.248-.357a1.4,1.4,0,0,1-.518-1.157,1.088,1.088,0,0,1,.434-.925c1.365-1.065,5.376-.359,6.806,0a.488.488,0,0,0,.586-.35.482.482,0,0,0-.349-.585A18.813,18.813,0,0,0,138.924,223.614Z" transform="translate(-133.936 -222.297)"/><path class="b" d="M154.847,229.572a3.961,3.961,0,0,1-1.171-.18,1.448,1.448,0,1,1,.859-2.765.74.74,0,0,0,.811-.159.543.543,0,0,0,.158-.529c-.091-.256-.558-.6-1.574-.722a2.48,2.48,0,0,0-2.036.438,3.481,3.481,0,0,0-.807,2.322,1.448,1.448,0,0,1-2.893.106,6.356,6.356,0,0,1,1.733-4.552,5.2,5.2,0,0,1,4.354-1.188c2.743.335,3.653,1.787,3.951,2.623a3.4,3.4,0,0,1-.8,3.5A3.558,3.558,0,0,1,154.847,229.572Zm-.744-2.046a.475.475,0,0,0-.222.055.483.483,0,0,0,.082.889,2.694,2.694,0,0,0,2.777-.668,2.441,2.441,0,0,0,.583-2.512c-.223-.625-.931-1.717-3.159-1.989a4.284,4.284,0,0,0-3.583.94,5.43,5.43,0,0,0-1.424,3.8.527.527,0,0,0,.5.461.484.484,0,0,0,.464-.5,4.4,4.4,0,0,1,1.121-3.059,3.358,3.358,0,0,1,2.8-.684c1.269.155,2.11.637,2.366,1.355a1.5,1.5,0,0,1-.371,1.521,1.714,1.714,0,0,1-1.794.413A.5.5,0,0,0,154.1,227.526Z" transform="translate(-134.979 -222.285)"/><path class="b" d="M168.45,229.791a20.928,20.928,0,0,1-4.683-.63,1.448,1.448,0,0,1,.709-2.809c2.218.559,5.219.771,5.975.179.047-.037.063-.048.063-.164,0-.278-.091-.351-.158-.405-.68-.549-2.834-.513-4.438-.165a1.448,1.448,0,0,1-.618-2.829c.786-.17,4.8-.928,6.871.738a3.3,3.3,0,0,1,1.238,2.661,3,3,0,0,1-1.178,2.449A6.136,6.136,0,0,1,168.45,229.791Zm-4.33-2.518a.484.484,0,0,0-.467.365.485.485,0,0,0,.35.587,19.886,19.886,0,0,0,4.446.6,5.254,5.254,0,0,0,3.189-.771,2.04,2.04,0,0,0,.806-1.688,2.359,2.359,0,0,0-.878-1.909c-1.763-1.42-5.625-.64-6.06-.547a.483.483,0,0,0,.208.943c1.309-.285,4.089-.576,5.247.357a1.391,1.391,0,0,1,.517,1.156,1.085,1.085,0,0,1-.434.926c-1.359,1.063-5.373.357-6.805,0A.463.463,0,0,0,164.121,227.273Z" transform="translate(-136.059 -222.297)"/></g><g transform="translate(10.381 20.336)"><rect class="a" width="24.308" height="25.439" rx="12.154" transform="translate(0.965 0.965)"/><path class="c" d="M153.393,265.49a13.134,13.134,0,0,1-13.119-13.119V251.24a13.119,13.119,0,1,1,26.238,0v1.131A13.134,13.134,0,0,1,153.393,265.49Zm0-25.439A11.2,11.2,0,0,0,142.2,251.24v1.131a11.189,11.189,0,0,0,22.378,0V251.24A11.2,11.2,0,0,0,153.393,240.051Z" transform="translate(-140.274 -238.121)"/></g></g></svg>