<svg xmlns="http://www.w3.org/2000/svg" xmlns:xlink="http://www.w3.org/1999/xlink" width="85.837" height="92.326" viewBox="0 0 85.837 92.326"><defs><style>.a{fill:#f0ece8;}.b{fill:#221b16;}.c{fill:#b0342f;}.d{fill:#d5af46;}.e{fill:#0064a3;}.f{filter:url(#a);}</style><filter id="a" x="0" y="0" width="85.837" height="92.326" filterUnits="userSpaceOnUse"><feOffset dy="3" input="SourceAlpha"/><feGaussianBlur stdDeviation="5" result="b"/><feFlood flood-color="#b0342f" flood-opacity="0.439"/><feComposite operator="in" in2="b"/><feComposite in="SourceGraphic"/></filter></defs><g transform="matrix(0.985, -0.174, 0.174, 0.985, 15.001, 20.164)"><g class="f" transform="matrix(0.98, 0.17, -0.17, 0.98, -11.27, -22.46)"><rect class="a" width="47" height="55" transform="matrix(0.98, -0.17, 0.17, 0.98, 15, 20.16)"/></g><rect class="b" width="47" height="32" transform="translate(0 -0.002)"/><rect class="c" width="47" height="2" transform="translate(0 53.998)"/><g transform="translate(2.554 37.836)"><g transform="translate(0 0)"><rect class="c" width="0.913" height="0.913" transform="translate(0.646 2.514) rotate(45)"/><rect class="c" width="0.913" height="0.913" transform="translate(4.839 4.826) rotate(45)"/><rect class="c" width="0.913" height="0.913" transform="translate(0.646 7.137) rotate(45)"/><rect class="c" width="0.913" height="0.913" transform="translate(4.839 9.449) rotate(45)"/><rect class="c" width="0.913" height="0.913" transform="translate(0.646 11.761) rotate(45)"/><rect class="c" width="0.913" height="0.913" transform="translate(8.99 2.514) rotate(45)"/><rect class="c" width="0.913" height="0.913" transform="translate(13.162 4.826) rotate(45)"/><rect class="c" width="0.913" height="0.913" transform="translate(8.99 7.137) rotate(45)"/><rect class="c" width="0.913" height="0.913" transform="translate(13.162 9.449) rotate(45)"/><rect class="c" width="0.913" height="0.913" transform="translate(8.99 11.761) rotate(45)"/><rect class="c" width="0.913" height="0.913" transform="translate(4.839) rotate(45)"/><rect class="c" width="0.913" height="0.913" transform="translate(4.818 14.275) rotate(45)"/><rect class="c" width="0.913" height="0.913" transform="translate(17.334 11.761) rotate(45)"/><rect class="c" width="0.913" height="0.913" transform="translate(13.162 14.275) rotate(45)"/><rect class="c" width="0.913" height="0.913" transform="translate(21.506 14.275) rotate(45)"/></g><rect class="c" width="0.913" height="0.913" transform="translate(41.952 3.16) rotate(135)"/><rect class="c" width="0.913" height="0.913" transform="translate(37.759 5.471) rotate(135)"/><rect class="c" width="0.913" height="0.913" transform="translate(41.952 7.783) rotate(135)"/><rect class="c" width="0.913" height="0.913" transform="translate(37.759 10.095) rotate(135)"/><rect class="c" width="0.913" height="0.913" transform="translate(41.952 12.407) rotate(135)"/><rect class="c" width="0.913" height="0.913" transform="translate(33.832 3.16) rotate(135)"/><rect class="c" width="0.913" height="0.913" transform="translate(29.772 5.471) rotate(135)"/><rect class="c" width="0.913" height="0.913" transform="translate(33.832 7.783) rotate(135)"/><rect class="c" width="0.913" height="0.913" transform="translate(29.772 10.095) rotate(135)"/><rect class="c" width="0.913" height="0.913" transform="translate(33.832 12.407) rotate(135)"/><rect class="c" width="0.913" height="0.913" transform="translate(37.759 0.646) rotate(135)"/><rect class="c" width="0.913" height="0.913" transform="translate(37.78 14.921) rotate(135)"/><rect class="c" width="0.913" height="0.913" transform="translate(25.712 12.407) rotate(135)"/><rect class="c" width="0.913" height="0.913" transform="translate(29.772 14.921) rotate(135)"/></g><path class="d" d="M351.261,319.235a3.37,3.37,0,1,1,3.37-3.37A3.373,3.373,0,0,1,351.261,319.235Zm0-4.81a1.44,1.44,0,1,0,1.44,1.44A1.441,1.441,0,0,0,351.261,314.424Z" transform="translate(-339.938 -307.32)"/><path class="d" d="M376.261,316.234a3.37,3.37,0,1,1,3.37-3.37A3.373,3.373,0,0,1,376.261,316.234Zm0-4.81a1.44,1.44,0,1,0,1.44,1.44A1.441,1.441,0,0,0,376.261,311.424Z" transform="translate(-341.463 -307.215)"/><path class="d" d="M383.261,326.235a3.37,3.37,0,1,1,3.37-3.37A3.373,3.373,0,0,1,383.261,326.235Zm0-4.81a1.44,1.44,0,1,0,1.44,1.44A1.441,1.441,0,0,0,383.261,321.424Z" transform="translate(-341.953 -307.878)"/><path class="d" d="M372.938,330.867a3.371,3.371,0,1,1,3.37-3.37A3.375,3.375,0,0,1,372.938,330.867Zm0-4.811a1.44,1.44,0,1,0,1.44,1.441A1.442,1.442,0,0,0,372.938,326.056Z" transform="translate(-341.261 -308.158)"/><path class="d" d="M353.261,332.234a3.37,3.37,0,1,1,3.37-3.37A3.373,3.373,0,0,1,353.261,332.234Zm0-4.81a1.44,1.44,0,1,0,1.44,1.44A1.441,1.441,0,0,0,353.261,327.424Z" transform="translate(-340.06 -308.24)"/><path class="d" d="M363.761,321.393a3.371,3.371,0,1,1,3.37-3.37A3.373,3.373,0,0,1,363.761,321.393Zm0-4.811a1.44,1.44,0,1,0,1.44,1.441A1.442,1.442,0,0,0,363.761,316.582Z" transform="translate(-340.701 -307.395)"/><path class="c" d="M0,0,25.972.4l.4,25.972L.4,25.972Z" transform="translate(23.5 11.785) rotate(45)"/><g transform="translate(0 24.815)"><g transform="translate(0 0.509)"><path class="a" d="M349.273,345.644a8.065,8.065,0,0,1-5.179-1.457,4.449,4.449,0,0,1-1.528-3.5A3.969,3.969,0,0,1,344,337.514c3.061-2.529,10.227-.773,11.632-.394a1.487,1.487,0,0,1,1.01,1.8,1.4,1.4,0,0,1-1.694,1.072c-2.948-.791-7.765-1.355-9.235-.138a.964.964,0,0,0-.358.835,1.417,1.417,0,0,0,.487,1.2c1.408,1.2,5.324.791,7,.4a1.4,1.4,0,0,1,1.66,1.13,1.482,1.482,0,0,1-1.064,1.762A19.886,19.886,0,0,1,349.273,345.644Z" transform="translate(-340.636 -334.243)"/><path class="e" d="M348.969,336.186a28.109,28.109,0,0,1,6.594.93,1.458,1.458,0,0,1,1.01,1.765,1.412,1.412,0,0,1-1.358,1.1,1.332,1.332,0,0,1-.336-.043,25.734,25.734,0,0,0-6.021-.829,5.513,5.513,0,0,0-3.214.693.94.94,0,0,0-.358.82,1.382,1.382,0,0,0,.487,1.176,5.646,5.646,0,0,0,3.385.783,17.638,17.638,0,0,0,3.614-.389,1.322,1.322,0,0,1,.3-.034,1.408,1.408,0,0,1,1.362,1.144,1.455,1.455,0,0,1-1.064,1.731,20.22,20.22,0,0,1-4.166.463,8.165,8.165,0,0,1-5.178-1.432,4.336,4.336,0,0,1-1.529-3.442,3.872,3.872,0,0,1,1.434-3.116,8.124,8.124,0,0,1,5.038-1.317m0-2.013a9.716,9.716,0,0,0-6.223,1.741,5.929,5.929,0,0,0-2.179,4.7,6.4,6.4,0,0,0,2.248,5.009A9.724,9.724,0,0,0,349.2,347.5a22.065,22.065,0,0,0,4.576-.508,3.528,3.528,0,0,0,2.184-5.095,3.391,3.391,0,0,0,2.481-2.526,3.485,3.485,0,0,0-2.408-4.211,30.1,30.1,0,0,0-7.068-.991Z" transform="translate(-340.566 -334.173)"/></g><g transform="translate(14.66)"><path class="a" d="M366.3,345.327a4.745,4.745,0,0,1-1.484-.243,1.5,1.5,0,0,1-.919-1.85,1.378,1.378,0,0,1,1.744-.973,1.708,1.708,0,0,0,1.884-.439,1.621,1.621,0,0,0,.381-1.569c-.272-.811-1.31-1.391-2.846-1.59a4.054,4.054,0,0,0-3.5.859c-1.459,1.415-1.393,4.089-1.393,4.117a1.4,1.4,0,1,1-2.786.116c-.008-.165-.13-4.04,2.28-6.394a6.578,6.578,0,0,1,5.735-1.63c3.592.465,4.76,2.413,5.137,3.532a4.67,4.67,0,0,1-1,4.606A4.319,4.319,0,0,1,366.3,345.327Z" transform="translate(-355.452 -333.716)"/><path class="e" d="M364.088,335.657a9.746,9.746,0,0,1,1.244.082c3.592.458,4.76,2.372,5.137,3.472a4.535,4.535,0,0,1-1,4.529,4.352,4.352,0,0,1-3.238,1.435,4.817,4.817,0,0,1-1.484-.239,1.465,1.465,0,0,1-.919-1.819,1.4,1.4,0,0,1,1.329-1.023,1.331,1.331,0,0,1,.415.066,2.11,2.11,0,0,0,.649.108,1.672,1.672,0,0,0,1.235-.539,1.575,1.575,0,0,0,.381-1.543c-.272-.8-1.31-1.368-2.846-1.564a7.148,7.148,0,0,0-.892-.059,3.633,3.633,0,0,0-2.606.9c-1.46,1.392-1.393,4.021-1.393,4.048a1.433,1.433,0,0,1-1.342,1.5h-.048a1.445,1.445,0,0,1-1.4-1.39c-.008-.162-.13-3.972,2.28-6.287a6.225,6.225,0,0,1,4.491-1.685m0-2.011h0a8.065,8.065,0,0,0-5.8,2.218c-3.017,2.9-2.92,7.355-2.9,7.854a3.422,3.422,0,0,0,3.326,3.313l.12,0a3.371,3.371,0,0,0,3.1-2.633,3.541,3.541,0,0,0,.283.766,3.338,3.338,0,0,0,1.959,1.7,6.644,6.644,0,0,0,2.055.33,6.237,6.237,0,0,0,4.631-2.055,6.6,6.6,0,0,0,1.423-6.6c-.528-1.539-2.1-4.206-6.721-4.795a11.946,11.946,0,0,0-1.479-.1Zm-1.748,8.069a2.024,2.024,0,0,1,.459-.762,1.235,1.235,0,0,1,.49-.273,3.391,3.391,0,0,0-.95,1.035Z" transform="translate(-355.383 -333.646)"/></g><g transform="translate(29.02 0.509)"><path class="a" d="M379.525,345.644a27.811,27.811,0,0,1-6.6-.945,1.491,1.491,0,0,1-1.01-1.8,1.391,1.391,0,0,1,1.695-1.072c2.948.789,7.766,1.357,9.235.138a.963.963,0,0,0,.358-.834,1.419,1.419,0,0,0-.487-1.2c-1.351-1.154-5.012-.858-7-.4a1.4,1.4,0,0,1-1.659-1.131,1.482,1.482,0,0,1,1.064-1.76c.661-.152,6.521-1.425,9.342.986a4.446,4.446,0,0,1,1.53,3.5,3.971,3.971,0,0,1-1.434,3.171A8.018,8.018,0,0,1,379.525,345.644Z" transform="translate(-369.947 -334.243)"/><path class="e" d="M379.222,336.186a8.158,8.158,0,0,1,5.174,1.432,4.335,4.335,0,0,1,1.53,3.443,3.874,3.874,0,0,1-1.434,3.116,8.124,8.124,0,0,1-5.037,1.316,28.265,28.265,0,0,1-6.6-.929,1.462,1.462,0,0,1-1.01-1.766,1.407,1.407,0,0,1,1.351-1.1,1.353,1.353,0,0,1,.344.045,25.778,25.778,0,0,0,6.026.829,5.486,5.486,0,0,0,3.209-.693.94.94,0,0,0,.358-.819,1.384,1.384,0,0,0-.487-1.177,5.641,5.641,0,0,0-3.392-.791,17.366,17.366,0,0,0-3.607.4,1.3,1.3,0,0,1-.3.033,1.408,1.408,0,0,1-1.363-1.144,1.455,1.455,0,0,1,1.064-1.73,20.411,20.411,0,0,1,4.167-.463m0-2.013h0a22.231,22.231,0,0,0-4.574.508,3.524,3.524,0,0,0-2.188,5.091,3.39,3.39,0,0,0-2.482,2.531,3.488,3.488,0,0,0,2.407,4.211,30.3,30.3,0,0,0,7.07.99,9.715,9.715,0,0,0,6.222-1.741,5.93,5.93,0,0,0,2.179-4.7,6.4,6.4,0,0,0-2.251-5.011,9.713,9.713,0,0,0-6.383-1.876Z" transform="translate(-369.877 -334.173)"/></g></g><path class="d" d="M344.261,327.234a3.37,3.37,0,1,1,3.37-3.37A3.373,3.373,0,0,1,344.261,327.234Zm0-4.81a1.44,1.44,0,1,0,1.44,1.44A1.441,1.441,0,0,0,344.261,322.424Z" transform="translate(-339.473 -307.939)"/></g></svg>