<svg xmlns="http://www.w3.org/2000/svg" width="14.818" height="23.703" viewBox="0 0 14.818 23.703"><defs><style>.a{fill:#221b16;}.b,.c{fill:none;stroke-linecap:round;stroke-miterlimit:10;}.b{stroke:#d1d1cd;stroke-linejoin:round;stroke-width:2px;}.c{stroke:#8a7144;stroke-width:3px;}</style></defs><g transform="translate(-4.617 12.184)"><path class="a" d="M22.387,7l-.655,13.728A1.216,1.216,0,0,1,20.425,21.9H10.963a1.216,1.216,0,0,1-1.308-1.168L9,7" transform="translate(-2.952 -10.378)"/><line class="b" y2="6.586" transform="translate(14.527 0.749)"/><line class="b" y2="6.586" transform="translate(10.612 0.749)"/><path class="c" d="M4.677,2.133h0L4.468.646A.753.753,0,0,0,3.62.007L.646.425a.753.753,0,0,0-.639.848L.216,2.76l4.461-.627Z" transform="matrix(0.985, -0.174, 0.174, 0.985, 8.767, -9.584)"/><path class="a" d="M.189,4.092,14.315,2.106l-.18-1.28A.96.96,0,0,0,13.051.009L.826,1.727A.96.96,0,0,0,.009,2.812Z" transform="matrix(0.985, -0.174, 0.174, 0.985, 4.617, -7.934)"/></g></svg>