<svg xmlns="http://www.w3.org/2000/svg" width="36.058" height="48.841" viewBox="0 0 36.058 48.841"><defs><style>.a{fill:#221b16;}.b,.c{fill:none;stroke-linecap:round;stroke-miterlimit:10;stroke-width:3px;}.b{stroke:#d1d1cd;stroke-linejoin:round;}.c{stroke:#8a7144;}</style></defs><g transform="translate(-5.698 5.261)"><path class="a" d="M40.787,7,39.232,39.6a2.888,2.888,0,0,1-3.106,2.774H13.66A2.888,2.888,0,0,1,10.554,39.6L9,7" transform="translate(-0.986 1.209)"/><line class="b" y2="19.269" transform="translate(24.238 16.053)"/><line class="b" y2="19.269" transform="translate(16.897 16.053)"/><line class="b" y2="19.269" transform="translate(31.578 16.053)"/><g transform="matrix(1, 0.017, -0.017, 1, 0.055, 0.586)"><path class="c" d="M11.105,5.065h0l-.5-3.531A1.788,1.788,0,0,0,8.6.017l-7.061.992A1.788,1.788,0,0,0,.017,3.023l.5,3.531L11.105,5.065Z" transform="translate(18.001 -4.443) rotate(7)"/><path class="a" d="M.427,9.718,35.006,4.877l-.429-3.039A2.318,2.318,0,0,0,31.932-.093L2.006,4.1A2.312,2.312,0,0,0,0,6.679Z" transform="translate(6.957 -3.577) rotate(7)"/></g></g></svg>