<svg xmlns="http://www.w3.org/2000/svg" width="14.247" height="14.247" viewBox="0 0 14.247 14.247"><defs><style>.a{fill:#221b16;}</style></defs><g transform="translate(0 0)"><path class="a" d="M36.141.863a2.942,2.942,0,0,0-4.162,0L29.4,3.449a.45.45,0,1,0,.636.638L32.615,1.5a2.047,2.047,0,1,1,2.89,2.9L32.1,7.815a.452.452,0,0,0,0,.638.448.448,0,0,0,.636,0l3.4-3.414A2.963,2.963,0,0,0,36.141.863Z" transform="translate(-22.754 0)"/><path class="a" d="M6.9,29.989,4.386,32.515a2.038,2.038,0,0,1-2.889,0,2.057,2.057,0,0,1,0-2.9L4.9,26.2a.45.45,0,1,0-.636-.638L.86,28.978a2.962,2.962,0,0,0,0,4.175,2.935,2.935,0,0,0,4.161,0l2.518-2.525a.45.45,0,0,0-.636-.638Z" transform="translate(0 -19.771)"/><path class="a" d="M54.452,36.911l-1.641-.256a.451.451,0,0,0-.138.891l1.641.256a.472.472,0,0,0,.07.005.451.451,0,0,0,.069-.9Z" transform="translate(-40.651 -28.492)"/><path class="a" d="M48.022,45.687a.45.45,0,1,0-.677.593l.751.863a.45.45,0,0,0,.677-.593Z" transform="translate(-36.719 -35.397)"/><path class="a" d="M38.181,50.355a.45.45,0,1,0-.875.21l.416,1.742a.45.45,0,0,0,.437.346.442.442,0,0,0,.1-.013A.451.451,0,0,0,38.6,52.1Z" transform="translate(-28.992 -38.877)"/><path class="a" d="M22.935,2.777a.452.452,0,0,0,.447-.5l-.2-1.654a.45.45,0,1,0-.893.108l.2,1.654a.45.45,0,0,0,.445.4Z" transform="translate(-17.326 -0.172)"/><path class="a" d="M12.413,10.646a.45.45,0,1,0,.7-.571l-.671-.824a.45.45,0,1,0-.7.571l.671.824Z" transform="translate(-9.049 -7.063)"/><path class="a" d="M1.945,21.031l1.721.478a.445.445,0,0,0,.12.016.451.451,0,0,0,.12-.886l-1.721-.478a.451.451,0,0,0-.24.869Z" transform="translate(-1.255 -15.661)"/></g></svg>